<svg xmlns="http://www.w3.org/2000/svg" viewBox="0 0 1200 630" width="1200" height="630">
  <defs>
    <linearGradient id="bg" x1="0" y1="0" x2="1" y2="1">
      <stop offset="0%" stop-color="#111110"/>
      <stop offset="100%" stop-color="#1a1a18"/>
    </linearGradient>
  </defs>

  <!-- Background -->
  <rect width="1200" height="630" fill="url(#bg)"/>

  <!-- Top accent line -->
  <rect x="0" y="0" width="1200" height="3" fill="#057805"/>

  <!-- LEFT: Text block -->
  <text x="60" y="120" font-family="Georgia, 'Times New Roman', serif" font-size="58" font-weight="400" fill="#DEDAD4" letter-spacing="0.01">Nifty 500</text>
  <text x="62" y="158" font-family="'Helvetica Neue', Helvetica, Arial, sans-serif" font-size="22" font-weight="300" fill="#858280" letter-spacing="0.03">Market Treemap</text>
  <rect x="62" y="178" width="300" height="1" fill="#2A2A28"/>
  <text x="62" y="212" font-family="'Helvetica Neue', Helvetica, Arial, sans-serif" font-size="15" font-weight="300" fill="#9A9793" letter-spacing="0.03">124 sectors · 500 stocks</text>
  <text x="62" y="578" font-family="'Helvetica Neue', Helvetica, Arial, sans-serif" font-size="11" font-weight="300" fill="#4a4a48" letter-spacing="0.04">Source: NSE India · Yahoo Finance</text>
  <text x="62" y="600" font-family="'Helvetica Neue', Helvetica, Arial, sans-serif" font-size="11" font-weight="300" fill="#2e2e2c" letter-spacing="0.04">Updated daily</text>

  <!-- TREEMAP GRID (right side, x=480 to 1160) -->
  <!-- Row 1: Private Bank (large) | Software | Refiners -->
  <rect x="480" y="40" width="280" height="260" rx="2" fill="#1c1c1a"/>
  <rect x="480" y="40" width="280" height="260" rx="2" fill="none" stroke="#2A2A28" stroke-width="1"/>
  <text x="500" y="85" font-family="'Helvetica Neue', Helvetica, Arial, sans-serif" font-size="11" font-weight="400" fill="#5a5755" letter-spacing="1.5">PRIVATE BANK</text>

  <rect x="780" y="40" width="200" height="180" rx="2" fill="#1c1c1a"/>
  <rect x="780" y="40" width="200" height="180" rx="2" fill="none" stroke="#2A2A28" stroke-width="1"/>
  <text x="800" y="85" font-family="'Helvetica Neue', Helvetica, Arial, sans-serif" font-size="11" font-weight="400" fill="#5a5755" letter-spacing="1.5">SOFTWARE</text>

  <rect x="1000" y="40" width="160" height="200" rx="2" fill="#1c1c1a"/>
  <rect x="1000" y="40" width="160" height="200" rx="2" fill="none" stroke="#2A2A28" stroke-width="1"/>
  <text x="1020" y="85" font-family="'Helvetica Neue', Helvetica, Arial, sans-serif" font-size="11" font-weight="400" fill="#5a5755" letter-spacing="1.5">REFINERS</text>

  <!-- Row 1 bottom: Pharma | Auto -->
  <rect x="1000" y="256" width="160" height="120" rx="2" fill="#1c1c1a"/>
  <rect x="1000" y="256" width="160" height="120" rx="2" fill="none" stroke="#2A2A28" stroke-width="1"/>
  <text x="1020" y="301" font-family="'Helvetica Neue', Helvetica, Arial, sans-serif" font-size="11" font-weight="400" fill="#5a5755" letter-spacing="1.5">PHARMA</text>

  <rect x="780" y="236" width="200" height="140" rx="2" fill="#1c1c1a"/>
  <rect x="780" y="236" width="200" height="140" rx="2" fill="none" stroke="#2A2A28" stroke-width="1"/>
  <text x="800" y="281" font-family="'Helvetica Neue', Helvetica, Arial, sans-serif" font-size="11" font-weight="400" fill="#5a5755" letter-spacing="1.5">AUTO</text>

  <!-- Row 2: Metals | FMCG | Energy -->
  <rect x="480" y="316" width="180" height="160" rx="2" fill="#1c1c1a"/>
  <rect x="480" y="316" width="180" height="160" rx="2" fill="none" stroke="#2A2A28" stroke-width="1"/>
  <text x="500" y="361" font-family="'Helvetica Neue', Helvetica, Arial, sans-serif" font-size="11" font-weight="400" fill="#5a5755" letter-spacing="1.5">METALS</text>

  <rect x="680" y="316" width="160" height="120" rx="2" fill="#1c1c1a"/>
  <rect x="680" y="316" width="160" height="120" rx="2" fill="none" stroke="#2A2A28" stroke-width="1"/>
  <text x="700" y="361" font-family="'Helvetica Neue', Helvetica, Arial, sans-serif" font-size="11" font-weight="400" fill="#5a5755" letter-spacing="1.5">FMCG</text>

  <rect x="860" y="392" width="140" height="84" rx="2" fill="#1c1c1a"/>
  <rect x="860" y="392" width="140" height="84" rx="2" fill="none" stroke="#2A2A28" stroke-width="1"/>
  <text x="880" y="437" font-family="'Helvetica Neue', Helvetica, Arial, sans-serif" font-size="11" font-weight="400" fill="#5a5755" letter-spacing="1.5">ENERGY</text>

  <!-- Row 3: Banks | Realty | Logistics -->
  <rect x="480" y="492" width="170" height="78" rx="2" fill="#1c1c1a"/>
  <rect x="480" y="492" width="170" height="78" rx="2" fill="none" stroke="#2A2A28" stroke-width="1"/>
  <text x="500" y="537" font-family="'Helvetica Neue', Helvetica, Arial, sans-serif" font-size="11" font-weight="400" fill="#5a5755" letter-spacing="1.5">BANKS</text>

  <rect x="670" y="452" width="170" height="118" rx="2" fill="#1c1c1a"/>
  <rect x="670" y="452" width="170" height="118" rx="2" fill="none" stroke="#2A2A28" stroke-width="1"/>
  <text x="690" y="497" font-family="'Helvetica Neue', Helvetica, Arial, sans-serif" font-size="11" font-weight="400" fill="#5a5755" letter-spacing="1.5">REALTY</text>

  <rect x="860" y="492" width="140" height="78" rx="2" fill="#1c1c1a"/>
  <rect x="860" y="492" width="140" height="78" rx="2" fill="none" stroke="#2A2A28" stroke-width="1"/>
  <text x="880" y="537" font-family="'Helvetica Neue', Helvetica, Arial, sans-serif" font-size="11" font-weight="400" fill="#5a5755" letter-spacing="1.5">LOGISTICS</text>

  <!-- Far right: vertical strip -->
  <rect x="1016" y="392" width="144" height="178" rx="2" fill="#1c1c1a"/>
  <rect x="1016" y="392" width="144" height="178" rx="2" fill="none" stroke="#2A2A28" stroke-width="1"/>
  <text x="1036" y="437" font-family="'Helvetica Neue', Helvetica, Arial, sans-serif" font-size="11" font-weight="400" fill="#5a5755" letter-spacing="1.5">CONSTRUCTION</text>
</svg>